Coordinates
version=1
nRows=14
nColumns=36
inDegrees=yes

Units are S.I. units (second, meters, Newtons, ...)
If the header above contains a line with 'inDegrees', this indicates whether rotational values are in degrees (yes) or radians (no).

endheader
time	pelvis_tilt	pelvis_list	pelvis_rotation	pelvis_tx	pelvis_ty	pelvis_tz	hip_flexion_r	hip_adduction_r	hip_rotation_r	knee_angle_r	knee_angle_r_beta	ankle_angle_r	subtalar_angle_r	mtp_angle_r	hip_flexion_l	hip_adduction_l	hip_rotation_l	knee_angle_l	knee_angle_l_beta	ankle_angle_l	subtalar_angle_l	mtp_angle_l	lumbar_extension	lumbar_bending	lumbar_rotation	arm_flex_r	arm_add_r	arm_rot_r	elbow_flex_r	pro_sup_r	arm_flex_l	arm_add_l	arm_rot_l	elbow_flex_l	pro_sup_l
      2.16666670	    -33.77163314	      3.60256918	     -8.16788009	      1.40447358	      0.66644783	      0.07100115	     86.66864740	     -6.59895814	     -0.38820162	     80.40922227	      1.40340568	     33.33567928	     -2.98980780	     -7.49999987	     87.11196945	     -7.93984587	      3.95997468	     79.51607148	      1.38781726	     30.76211692	    -12.06440069	     -7.49999987	    -15.42862850	     -0.13470415	      7.42735644	     62.53124076	     -3.06851022	     80.08425333	    124.49859609	    108.21732855	     77.42631388	     10.97722907	     76.40067342	    118.55701538	    108.44613675
      2.18333330	    -33.82108537	      3.63354096	     -8.04234542	      1.40017894	      0.66336423	      0.06723335	     87.80615872	     -6.68665785	     -0.26191290	     81.78300563	      1.42738272	     33.43335748	     -3.32736900	     -7.49999987	     88.30096133	     -7.92245727	      4.01642373	     80.83455369	      1.41082911	     30.72186197	    -12.23919805	     -7.49999987	    -16.70415616	     -0.02218752	      7.31494216	     62.88822437	     -3.92495573	     80.08302981	    124.14510007	    108.20982478	     77.37315775	     10.66287931	     76.55793503	    118.25369661	    108.47988238
      2.20000000	    -34.58768596	      3.66539087	     -7.75783842	      1.39394042	      0.65036204	      0.07028294	     89.84040172	     -6.77236122	     -0.14939191	     83.31450059	      1.45411235	     33.55574785	     -4.18053823	     -7.49999987	     90.46909542	     -7.83318530	      4.21695877	     82.28239552	      1.43609872	     30.65433584	    -12.73385061	     -7.49999987	    -16.59899210	     -0.17198696	      7.70039327	     64.30327616	     -3.72530653	     80.19167602	    124.58255411	    106.94465554	     78.42690326	     10.98789299	     76.71663141	    117.61822253	    107.64780110
      2.21666670	    -34.91423415	      3.75407845	     -7.55904471	      1.39967110	      0.64557478	      0.06305320	     91.25427594	     -6.93633911	      0.04741590	     84.68737015	      1.47807344	     33.66979889	     -4.60111833	     -7.49999987	     91.88103453	     -7.62629871	      4.33625775	     83.54773762	      1.45818310	     30.64635482	    -13.08197202	     -7.49999987	    -17.01381278	     -0.12866500	      7.67724210	     64.46772869	     -4.22981251	     82.06019316	    125.54228460	    107.03099926	     77.87714108	     11.84626809	     76.62490268	    117.13421640	    107.94964998
      2.23333330	    -35.21210129	      3.81387718	     -7.33629314	      1.38955853	      0.63458477	      0.06111568	     92.84680164	     -7.18369731	      0.24376402	     86.20793933	      1.50461238	     33.80639868	     -4.99452427	     -7.49999987	     93.53392240	     -7.46303629	      4.37031759	     84.99081130	      1.48336949	     30.60299569	    -13.46060438	     -7.49999987	    -17.35362231	      0.01885671	      7.44122737	     65.62774287	     -4.83570502	     82.25279350	    126.26152284	    105.24464161	     78.71024890	     12.28851139	     76.11395310	    117.07810246	    106.28770155
      2.25000000	    -35.46664815	      3.92638568	     -7.16756787	      1.38948494	      0.62910312	      0.06060514	     94.35119203	     -7.39149653	      0.48147718	     87.67604479	      1.53023566	     33.88578517	     -5.32690616	     -7.49999987	     95.09123207	     -7.30141876	      4.38127119	     86.35485399	      1.50717653	     30.31916157	    -14.24689779	     -7.49999987	    -18.13231228	     -0.02358302	      7.88580608	     66.07304313	     -6.45932948	     81.43821472	    125.58943256	    106.10125537	     78.80333404	     12.53795489	     75.75092627	    115.48061600	    109.86140629
      2.26666670	    -35.72387582	      3.98488665	     -6.98102680	      1.37889888	      0.61816032	      0.06472001	     95.99151047	     -7.53998066	      0.66859237	     89.26813626	      1.55802289	     33.94518111	     -5.68414397	     -7.49999987	     96.80535846	     -7.24829300	      4.38920928	     87.80007559	      1.53240040	     30.10258441	    -14.76726588	     -7.49999987	    -18.45638769	     -0.15685893	      7.81903029	     67.35035243	     -4.91805536	     80.82729537	    126.78745224	    106.05811670	     80.54022540	     12.75765451	     74.59911973	    116.56557554	    109.70454785
      2.28333330	    -35.41221774	      3.90386634	     -6.89147116	      1.38445028	      0.61209496	      0.06335198	     96.84553559	     -7.63326366	      0.76208192	     90.79698295	      1.58470630	     33.98106526	     -5.90388400	     -7.49999987	     97.74725242	     -7.24877799	      4.49736628	     89.21874497	      1.55716085	     30.03517634	    -14.99966394	     -7.49999987	    -19.18039952	     -0.22859545	      8.01919799	     67.17315244	     -4.57689629	     81.04706882	    126.75394700	    106.06274498	     80.45274525	     12.89286818	     74.56997801	    116.59597478	    109.69023383
      2.30000000	    -35.83534467	      4.01808885	     -6.77406093	      1.38364670	      0.60253016	      0.06347327	     98.50856043	     -7.69752162	      1.01864738	     92.30823937	      1.61108270	     34.30708950	     -6.06210583	     -7.49999987	     99.36699122	     -7.16778010	      4.57984019	     90.57944955	      1.58090963	     29.96212248	    -15.63799600	     -7.49999987	    -19.11297361	     -0.23775472	      7.99456440	     67.36047814	     -4.83067118	     82.24219342	    126.56951074	    104.86352296	     80.19919378	     13.02701910	     74.22281646	    116.56058414	    108.59235815
      2.31666670	    -35.87295695	      4.04882718	     -6.65993534	      1.37408708	      0.59857400	      0.06316116	     99.71037339	     -7.77153731	      1.20162608	     93.63536745	      1.63424546	     34.29672765	     -6.41952643	     -7.49999987	    100.58158135	     -7.18161562	      4.58256192	     91.82868661	      1.60271293	     29.77911311	    -16.03738527	     -7.49999987	    -19.76845110	     -0.23153892	      8.13194944	     68.23788426	     -6.22218147	     81.43407106	    124.65021539	    104.77641937	     80.65808319	     12.49829002	     74.05178127	    114.87471096	    108.77693541
      2.33333330	    -35.98021338	      4.15414578	     -6.58786921	      1.38441961	      0.59379246	      0.05796532	    100.75610026	     -7.89014483	      1.42945565	     94.74891134	      1.65368047	     34.34359162	     -6.65721244	     -7.49999987	    101.50601169	     -7.09457597	      4.56835945	     92.86447466	      1.62079084	     29.79089253	    -16.21853239	     -7.49999987	    -20.15114740	     -0.30925238	      8.17174243	     67.88506437	     -6.06997617	     82.95494398	    125.54410542	    104.84402045	     80.05349030	     13.25069719	     74.27377538	    114.94972072	    108.88058165
      2.35000000	    -36.07259890	      4.13599293	     -6.49873896	      1.37407106	      0.58410992	      0.06296514	    101.80060586	     -7.88455580	      1.60245137	     95.89327016	      1.67365329	     34.37850462	     -6.87517308	     -7.49999987	    102.57594100	     -7.12078135	      4.59136392	     93.97715005	      1.64021069	     29.78661402	    -16.35966857	     -7.49999987	    -20.23658716	     -0.43422439	      8.36395617	     68.52543971	     -5.40249703	     82.67599497	    126.17096907	    104.75376307	     80.43220145	     13.55789953	     73.69270335	    115.08736521	    108.84222790
      2.36666670	    -35.91443857	      4.14082082	     -6.54366789	      1.37915806	      0.57864820	      0.05924129	    102.53658831	     -7.88185792	      1.73198426	     96.98699769	      1.69274244	     34.36666564	     -7.04074962	     -7.49999987	    103.24849871	     -7.15805580	      4.62535217	     95.04339644	      1.65882020	     29.75431790	    -16.47681179	     -7.49999987	    -20.78535637	     -0.28729472	      8.04099621	     68.50783725	     -5.63655445	     82.83707303	    126.29545349	    104.75709806	     80.51722426	     13.58102462	     73.58436210	    115.02907984	    108.85510588
      2.38333330	    -36.05967478	      4.30126686	     -6.42624002	      1.38373488	      0.57162449	      0.05757581	    103.57869807	     -8.06748094	      2.05411532	     98.13031093	      1.71269702	     34.53501737	     -7.14473679	     -7.49999987	    104.06859444	     -6.91877164	      4.58007515	     96.02230091	      1.67590531	     29.99468765	    -16.57400117	     -7.49999987	    -21.00777903	     -0.39404351	      7.98904230	     67.72553725	     -6.66110361	     83.60691931	    125.50870080	    104.72635996	     79.81224925	     13.32190645	     74.28459383	    113.69362026	    109.10218053
